<?xml version="1.0" encoding="UTF-8"?>
<!DOCTYPE svg PUBLIC "-//W3C//DTD SVG 1.1//EN" "http://www.w3.org/Graphics/SVG/1.1/DTD/svg11.dtd">
<!-- Creator: CorelDRAW -->
<svg xmlns="http://www.w3.org/2000/svg" xml:space="preserve" width="585px" height="330px" version="1.1" style="shape-rendering:geometricPrecision; text-rendering:geometricPrecision; image-rendering:optimizeQuality; fill-rule:evenodd; clip-rule:evenodd"
viewBox="0 0 780 440"
 xmlns:xlink="http://www.w3.org/1999/xlink"
 xmlns:xodm="http://www.corel.com/coreldraw/odm/2003">
 <defs>
  <style type="text/css">
   <![CDATA[
    .str1 {stroke:#606060;stroke-miterlimit:2.61313;stroke-opacity:0.200000}
    .str0 {stroke:#606060;stroke-miterlimit:2.61313;stroke-opacity:0.650980}
    .str2 {stroke:#606060;stroke-width:2;stroke-miterlimit:2.61313}
    .str3 {stroke:#6D8021;stroke-width:2;stroke-miterlimit:2.61313}
    .fil0 {fill:none}
    .fil2 {fill:none}
    .fil1 {fill:none}
    .fil3 {fill:#606060;fill-opacity:0.501961}
    .fil4 {fill:#B0CB21;fill-opacity:0.501961}
   ]]>
  </style>
 </defs>
 <g id="Layer_x0020_1">
  <metadata id="CorelCorpID_0Corel-Layer"/>
  <rect id="background" class="fil0" x="-0.14" y="0.13" width="780" height="440"/>
  <path id="construction_centres" class="fil1 str0" d="M719.86 290.13l0 20m10 -10l-20 0m-70 -90l0 20m10 -10l-20 0m-70 -170l0 20m10 -10l-20 0m10 120l0 20m10 -10l-20 0m10 50l0 20m10 -10l-20 0m10 120l0 20m10 -10l-20 0m-90 -130l0 20m10 -10l-20 0m-30 -130l0 20m10 -10l-20 0m-50 150l0 20m10 -10l-20 0m-70 -90l0 20m10 -10l-20 0m-70 70l0 20m10 -10l-20 0m50 -130l0 20m10 -10l-20 0m-126.7 -30l0 20m10 -10l-20 0m-33.3 -35l0 20m10 -10l-20 0m96.6 -10l0 20m10 -10l-20 0m-33.3 -35l0 20m10 -10l-20 0m10 -60l0 20m10 -10l-20 0m-33.3 15l0 20m10 -10l-20 0m96.6 -10l0 20m10 -10l-20 0"/>
  <path id="construction_circles" class="fil2 str1" d="M103.16 40.13c38.66,0 70,31.34 70,70 0,38.66 -31.34,70 -70,70 -38.66,0 -70,-31.34 -70,-70 0,-38.66 31.34,-70 70,-70zm176.7 80c-55.23,0 -100,44.77 -100,100 0,55.23 44.77,100 100,100 55.22,0 100,-44.77 100,-100 0,-55.23 -44.78,-100 -100,-100zm0 160c33.13,0 60,-26.86 60,-60 0,-33.13 -26.87,-60 -60,-60 -33.14,0 -60,26.87 -60,60 0,33.14 26.86,60 60,60zm-40 -40c-33.14,0 -60,-26.86 -60,-60 0,-33.13 26.86,-60 60,-60 33.13,0 60,26.87 60,60 0,33.14 -26.87,60 -60,60zm0 -40c11.04,0 20,-8.95 20,-20 0,-11.04 -8.96,-20 -20,-20 -11.05,0 -20,8.96 -20,20 0,11.05 8.95,20 20,20zm-40 80c11.04,0 20,8.96 20,20 0,11.05 -8.96,20 -20,20 -11.05,0 -20,-8.95 -20,-20 0,-11.04 8.95,-20 20,-20zm160 0c11.04,0 20,8.96 20,20 0,11.05 -8.96,20 -20,20 -11.05,0 -20,-8.95 -20,-20 0,-11.04 8.95,-20 20,-20zm200 -240c11.04,0 20,8.96 20,20 0,11.05 -8.96,20 -20,20 -11.05,0 -20,-8.95 -20,-20 0,-11.04 8.95,-20 20,-20zm0 130c11.04,0 20,8.96 20,20 0,11.05 -8.96,20 -20,20 -11.05,0 -20,-8.95 -20,-20 0,-11.04 8.95,-20 20,-20zm160 110c11.04,0 20,8.96 20,20 0,11.05 -8.96,20 -20,20 -11.05,0 -20,-8.95 -20,-20 0,-11.04 8.95,-20 20,-20zm-80 -160c-55.23,0 -100,44.77 -100,100 0,55.23 44.77,100 100,100 55.22,0 100,-44.77 100,-100 0,-55.23 -44.78,-100 -100,-100zm0 160c33.13,0 60,-26.86 60,-60 0,-33.13 -26.87,-60 -60,-60 -33.14,0 -60,26.87 -60,60 0,33.14 26.86,60 60,60zm-80 80c11.04,0 20,8.96 20,20 0,11.05 -8.96,20 -20,20 -11.05,0 -20,-8.95 -20,-20 0,-11.04 8.95,-20 20,-20zm0 -130c11.04,0 20,8.96 20,20 0,11.05 -8.96,20 -20,20 -11.05,0 -20,-8.95 -20,-20 0,-11.04 8.95,-20 20,-20zm-100 10c11.04,0 20,8.96 20,20 0,11.05 -8.96,20 -20,20 -11.05,0 -20,-8.95 -20,-20 0,-11.04 8.95,-20 20,-20zm0 -40c-33.14,0 -60,26.87 -60,60 0,33.14 26.86,60 60,60 33.13,0 60,-26.86 60,-60 0,-33.13 -26.87,-60 -60,-60zm-40 -80c11.04,0 20,8.96 20,20 0,11.05 -8.96,20 -20,20 -11.05,0 -20,-8.95 -20,-20 0,-11.04 8.95,-20 20,-20z"/>
  <path id="contrsuction_vertical" class="fil2 str1" d="M739.86 20.13l0 400m-40 -400l0 400m-120 -400l0 400m-40 -400l0 400m-100 -400l0 400m-40 -400l0 400m-20 -400l0 400m-40 -400l0 400m-120 -400l0 400m-40 -400l0 400m-140 -400l0 400"/>
  <path id="construction_horizontal" class="fil2 str1" d="M19.86 400.13l740 0m-740 -120l740 0m-740 -50l740 0m-740 -20l740 0m-740 110l740 0m-740 -200l740 0m-740 40l740 0m-740 -120l740 0"/>
  <path id="nh_transparent" class="fil3" d="M579.86 160.13l0 30c0,11.05 -8.96,20 -20,20 -11.05,0 -20,-8.95 -20,-20l0 -130c0,-11.04 8.95,-20 20,-20 11.04,0 20,8.96 20,20l0 60 60 0c55.22,0 100,44.77 100,100l0 80c0,11.05 -8.96,20 -20,20 -11.05,0 -20,-8.95 -20,-20l0 -80c0,-33.13 -26.87,-60 -60,-60l-60 0zm-340 0c-11.05,0 -20,8.96 -20,20l0 120c0,11.05 -8.96,20 -20,20 -11.05,0 -20,-8.95 -20,-20l0 -120c0,-33.13 26.86,-60 60,-60l40 0c55.22,0 100,44.77 100,100l0 80c0,11.05 -8.96,20 -20,20 -11.05,0 -20,-8.95 -20,-20l0 -80c0,-33.13 -26.87,-60 -60,-60l-40 0z"/>
  <path id="nh_outline" class="fil0 str2" d="M579.86 160.13l0 30c0,11.05 -8.96,20 -20,20 -11.05,0 -20,-8.95 -20,-20l0 -130c0,-11.04 8.95,-20 20,-20 11.04,0 20,8.96 20,20l0 60 60 0c55.22,0 100,44.77 100,100l0 80c0,11.05 -8.96,20 -20,20 -11.05,0 -20,-8.95 -20,-20l0 -80c0,-33.13 -26.87,-60 -60,-60l-60 0zm-340 0c-11.05,0 -20,8.96 -20,20l0 120c0,11.05 -8.96,20 -20,20 -11.05,0 -20,-8.95 -20,-20l0 -120c0,-33.13 26.86,-60 60,-60l40 0c55.22,0 100,44.77 100,100l0 80c0,11.05 -8.96,20 -20,20 -11.05,0 -20,-8.95 -20,-20l0 -80c0,-33.13 -26.87,-60 -60,-60l-40 0z"/>
  <path id="asterisk_4_transparent" class="fil4" d="M459.86 280.13c-11.05,0 -20,-8.95 -20,-20l0 -120c0,-11.04 -8.96,-20 -20,-20 -11.05,0 -20,8.96 -20,20l0 120c0,33.14 26.86,60 60,60l80 0 0 60c0,11.05 8.95,20 20,20 11.04,0 20,-8.95 20,-20l0 -130c0,-11.04 -8.96,-20 -20,-20 -11.05,0 -20,8.96 -20,20l0 30 -80 0zm-313.4 -125c11.04,0 20,-8.95 20,-20 0,-11.04 -8.96,-20 -20,-20 -11.05,0 -20,8.96 -20,20 0,11.05 8.95,20 20,20zm0 -50c11.04,0 20,-8.95 20,-20 0,-11.04 -8.96,-20 -20,-20 -11.05,0 -20,8.96 -20,20 0,11.05 8.95,20 20,20zm-43.3 -25c11.04,0 20,-8.95 20,-20 0,-11.04 -8.96,-20 -20,-20 -11.05,0 -20,8.96 -20,20 0,11.05 8.95,20 20,20zm-43.3 25c11.04,0 20,-8.95 20,-20 0,-11.04 -8.96,-20 -20,-20 -11.05,0 -20,8.96 -20,20 0,11.05 8.95,20 20,20zm0 50c11.04,0 20,-8.95 20,-20 0,-11.04 -8.96,-20 -20,-20 -11.05,0 -20,8.96 -20,20 0,11.05 8.95,20 20,20zm43.3 25c11.04,0 20,-8.95 20,-20 0,-11.04 -8.96,-20 -20,-20 -11.05,0 -20,8.96 -20,20 0,11.05 8.95,20 20,20z"/>
  <path id="asterisk_4_outline" class="fil0 str3" d="M459.86 280.13c-11.05,0 -20,-8.95 -20,-20l0 -120c0,-11.04 -8.96,-20 -20,-20 -11.05,0 -20,8.96 -20,20l0 120c0,33.14 26.86,60 60,60l80 0 0 60c0,11.05 8.95,20 20,20 11.04,0 20,-8.95 20,-20l0 -130c0,-11.04 -8.96,-20 -20,-20 -11.05,0 -20,8.96 -20,20l0 30 -80 0zm-400 -175c11.04,0 20,-8.95 20,-20 0,-11.04 -8.96,-20 -20,-20 -11.05,0 -20,8.96 -20,20 0,11.05 8.95,20 20,20zm43.3 -25c11.04,0 20,-8.95 20,-20 0,-11.04 -8.96,-20 -20,-20 -11.05,0 -20,8.96 -20,20 0,11.05 8.95,20 20,20zm43.3 25c11.04,0 20,-8.95 20,-20 0,-11.04 -8.96,-20 -20,-20 -11.05,0 -20,8.96 -20,20 0,11.05 8.95,20 20,20zm0 50c11.04,0 20,-8.95 20,-20 0,-11.04 -8.96,-20 -20,-20 -11.05,0 -20,8.96 -20,20 0,11.05 8.95,20 20,20zm-43.3 25c11.04,0 20,-8.95 20,-20 0,-11.04 -8.96,-20 -20,-20 -11.05,0 -20,8.96 -20,20 0,11.05 8.95,20 20,20zm-43.3 -25c11.04,0 20,-8.95 20,-20 0,-11.04 -8.96,-20 -20,-20 -11.05,0 -20,8.96 -20,20 0,11.05 8.95,20 20,20z"/>
 </g>
</svg>
