<?xml version="1.0" encoding="UTF-8"?>
<!DOCTYPE svg PUBLIC "-//W3C//DTD SVG 1.1//EN" "http://www.w3.org/Graphics/SVG/1.1/DTD/svg11.dtd">
<!-- Creator: CorelDRAW -->
<svg xmlns="http://www.w3.org/2000/svg" xml:space="preserve" width="128px" height="128px" version="1.1" style="shape-rendering:geometricPrecision; text-rendering:geometricPrecision; image-rendering:optimizeQuality; fill-rule:evenodd; clip-rule:evenodd"
viewBox="0 0 128 128"
 xmlns:xlink="http://www.w3.org/1999/xlink"
 xmlns:xodm="http://www.corel.com/coreldraw/odm/2003">
 <defs>
  <style type="text/css">
   <![CDATA[
    .fil0 {fill:none}
    .fil2 {fill:#606060}
    .fil1 {fill:#B0CB21}
   ]]>
  </style>
 </defs>
 <g id="Layer1">
  <metadata id="CorelCorpID_0Corel-Layer"/>
  <polygon id="background" class="fil0" points="-0.05,0.05 127.95,0.05 127.95,128.05 -0.05,128.05 "/>
  <path id="asterisk_4" class="fil1" d="M75.15 52.85c-1.77,0 -3.2,-1.43 -3.2,-3.2l0 -19.2c0,-1.77 -1.43,-3.2 -3.2,-3.2 -1.77,0 -3.2,1.43 -3.2,3.2l0 19.2c0,5.3 4.3,9.6 9.6,9.6l12.8 0 0 9.6c0,1.77 1.43,3.2 3.2,3.2 1.77,0 3.2,-1.43 3.2,-3.2l0 -20.8c0,-1.77 -1.43,-3.2 -3.2,-3.2 -1.77,0 -3.2,1.43 -3.2,3.2l0 4.8 -12.8 0zm-50.14 -20c1.77,0 3.2,-1.43 3.2,-3.2 0,-1.77 -1.43,-3.2 -3.2,-3.2 -1.77,0 -3.2,1.43 -3.2,3.2 0,1.77 1.43,3.2 3.2,3.2zm0 -8c1.77,0 3.2,-1.43 3.2,-3.2 0,-1.77 -1.43,-3.2 -3.2,-3.2 -1.77,0 -3.2,1.43 -3.2,3.2 0,1.77 1.43,3.2 3.2,3.2zm-6.93 -4c1.77,0 3.2,-1.43 3.2,-3.2 0,-1.77 -1.43,-3.2 -3.2,-3.2 -1.77,0 -3.2,1.43 -3.2,3.2 0,1.77 1.43,3.2 3.2,3.2zm-6.93 4c1.77,0 3.2,-1.43 3.2,-3.2 0,-1.77 -1.43,-3.2 -3.2,-3.2 -1.77,0 -3.2,1.43 -3.2,3.2 0,1.77 1.43,3.2 3.2,3.2zm0 8c1.77,0 3.2,-1.43 3.2,-3.2 0,-1.77 -1.43,-3.2 -3.2,-3.2 -1.77,0 -3.2,1.43 -3.2,3.2 0,1.77 1.43,3.2 3.2,3.2zm6.93 4c1.77,0 3.2,-1.43 3.2,-3.2 0,-1.77 -1.43,-3.2 -3.2,-3.2 -1.77,0 -3.2,1.43 -3.2,3.2 0,1.77 1.43,3.2 3.2,3.2z"/>
  <path id="nh" class="fil2" d="M94.35 33.65l0 4.8c0,1.77 -1.43,3.2 -3.2,3.2 -1.77,0 -3.2,-1.43 -3.2,-3.2l0 -20.8c0,-1.77 1.43,-3.2 3.2,-3.2 1.77,0 3.2,1.43 3.2,3.2l0 9.6 9.6 0c8.84,0 16,7.16 16,16l0 12.8c0,1.77 -1.43,3.2 -3.2,3.2 -1.77,0 -3.2,-1.43 -3.2,-3.2l0 -12.8c0,-5.3 -4.3,-9.6 -9.6,-9.6l-9.6 0zm-54.4 0c-1.77,0 -3.2,1.43 -3.2,3.2l0 19.2c0,1.77 -1.43,3.2 -3.2,3.2 -1.77,0 -3.2,-1.43 -3.2,-3.2l0 -19.2c0,-5.3 4.3,-9.6 9.6,-9.6l6.4 0c8.84,0 16,7.16 16,16l0 12.8c0,1.77 -1.43,3.2 -3.2,3.2 -1.77,0 -3.2,-1.43 -3.2,-3.2l0 -12.8c0,-5.3 -4.3,-9.6 -9.6,-9.6l-6.4 0z"/>
 </g>
</svg>
