<?xml version="1.0" encoding="UTF-8"?>
<!DOCTYPE svg PUBLIC "-//W3C//DTD SVG 1.1//EN" "http://www.w3.org/Graphics/SVG/1.1/DTD/svg11.dtd">
<!-- Creator: CorelDRAW -->
<svg xmlns="http://www.w3.org/2000/svg" xml:space="preserve" width="128px" height="128px" version="1.1" style="shape-rendering:geometricPrecision; text-rendering:geometricPrecision; image-rendering:optimizeQuality; fill-rule:evenodd; clip-rule:evenodd"
viewBox="0 0 128 128"
 xmlns:xlink="http://www.w3.org/1999/xlink"
 xmlns:xodm="http://www.corel.com/coreldraw/odm/2003">
 <defs>
  <style type="text/css">
   <![CDATA[
    .fil2 {fill:#606060}
    .fil1 {fill:#B0CB21}
    .fil0 {fill:#E0E0E0}
   ]]>
  </style>
 </defs>
 <g id="Layer_x0020_1">
  <metadata id="CorelCorpID_0Corel-Layer"/>
  <polygon id="background" class="fil0" points="-0.05,0.05 127.95,0.05 127.95,128.05 -0.05,128.05 "/>
  <path id="__x002a_4" class="fil1" d="M74.05 47.21c-1.86,0 -3.36,-1.51 -3.36,-3.37l0 -20.21c0,-1.86 -1.51,-3.37 -3.37,-3.37 -1.86,0 -3.37,1.51 -3.37,3.37l0 20.21c0,5.58 4.52,10.11 10.1,10.11l13.48 0 0 10.1c0,1.86 1.51,3.37 3.37,3.37 1.86,0 3.36,-1.51 3.36,-3.37l0 -21.89c0,-1.86 -1.5,-3.37 -3.36,-3.37 -1.86,0 -3.37,1.51 -3.37,3.37l0 5.05 -13.48 0zm-66.79 -29.47c1.86,0 3.37,-1.51 3.37,-3.37 0,-1.86 -1.51,-3.37 -3.37,-3.37 -1.86,0 -3.37,1.51 -3.37,3.37 0,1.86 1.51,3.37 3.37,3.37zm14.58 0c1.86,0 3.37,-1.51 3.37,-3.37 0,-1.86 -1.51,-3.37 -3.37,-3.37 -1.86,0 -3.37,1.51 -3.37,3.37 0,1.86 1.51,3.37 3.37,3.37zm-7.29 4.21c1.86,0 3.37,-1.51 3.37,-3.37 0,-1.86 -1.51,-3.37 -3.37,-3.37 -1.86,0 -3.37,1.51 -3.37,3.37 0,1.86 1.51,3.37 3.37,3.37zm0 8.42c1.86,0 3.37,-1.51 3.37,-3.37 0,-1.86 -1.51,-3.37 -3.37,-3.37 -1.86,0 -3.37,1.51 -3.37,3.37 0,1.86 1.51,3.37 3.37,3.37zm7.29 -4.21c1.86,0 3.37,-1.51 3.37,-3.37 0,-1.86 -1.51,-3.37 -3.37,-3.37 -1.86,0 -3.37,1.51 -3.37,3.37 0,1.86 1.51,3.37 3.37,3.37zm-14.58 0c1.86,0 3.37,-1.51 3.37,-3.37 0,-1.86 -1.51,-3.37 -3.37,-3.37 -1.86,0 -3.37,1.51 -3.37,3.37 0,1.86 1.51,3.37 3.37,3.37zm7.29 -12.64c1.86,0 3.37,-1.5 3.37,-3.36 0,-1.86 -1.51,-3.37 -3.37,-3.37 -1.86,0 -3.37,1.51 -3.37,3.37 0,1.86 1.51,3.36 3.37,3.36z"/>
  <path id="nh" class="fil2" d="M37 27c-1.86,0 -3.37,1.51 -3.37,3.37l0 20.21c0,1.86 -1.51,3.37 -3.37,3.37 -1.86,0 -3.36,-1.51 -3.36,-3.37l0 -20.21c0,-5.58 4.52,-10.11 10.1,-10.11l6.74 0c9.3,0 16.84,7.54 16.84,16.84l0 13.48c0,1.86 -1.51,3.37 -3.37,3.37 -1.86,0 -3.37,-1.51 -3.37,-3.37l0 -13.48c0,-5.58 -4.52,-10.1 -10.1,-10.1l-6.74 0zm57.26 0l0 5.05c0,1.86 -1.5,3.37 -3.36,3.37 -1.86,0 -3.37,-1.51 -3.37,-3.37l0 -21.89c0,-1.86 1.51,-3.37 3.37,-3.37 1.86,0 3.36,1.51 3.36,3.37l0 10.1 10.11 0c9.3,0 16.84,7.54 16.84,16.84l0 13.48c0,1.86 -1.51,3.37 -3.37,3.37 -1.86,0 -3.36,-1.51 -3.36,-3.37l0 -13.48c0,-5.58 -4.53,-10.1 -10.11,-10.1l-10.11 0z"/>
 </g>
</svg>
